<mxfile host="65bd71144e">
    <diagram id="9t62fphV6wk2fh-ekMFj" name="Page-1">
        <mxGraphModel dx="1709" dy="892" grid="1" gridSize="10" guides="1" tooltips="1" connect="1" arrows="1" fold="1" page="1" pageScale="1" pageWidth="1169" pageHeight="827" math="0" shadow="0">
            <root>
                <mxCell id="0"/>
                <mxCell id="1" parent="0"/>
                <mxCell id="35" value="" style="edgeStyle=none;html=1;entryX=0.017;entryY=0.65;entryDx=0;entryDy=0;entryPerimeter=0;" edge="1" parent="1" source="12" target="38">
                    <mxGeometry relative="1" as="geometry">
                        <mxPoint x="340" y="110" as="targetPoint"/>
                    </mxGeometry>
                </mxCell>
                <mxCell id="36" value="Request new swap and sign" style="edgeLabel;html=1;align=center;verticalAlign=middle;resizable=0;points=[];" vertex="1" connectable="0" parent="35">
                    <mxGeometry x="-0.27" y="1" relative="1" as="geometry">
                        <mxPoint as="offset"/>
                    </mxGeometry>
                </mxCell>
                <mxCell id="12" value="Bob" style="shape=umlActor;verticalLabelPosition=bottom;verticalAlign=top;html=1;outlineConnect=0;" parent="1" vertex="1">
                    <mxGeometry x="40" y="140" width="30" height="60" as="geometry"/>
                </mxCell>
                <mxCell id="52" value="" style="swimlane;startSize=0;" vertex="1" parent="1">
                    <mxGeometry x="300" y="50" width="470" height="480" as="geometry"/>
                </mxCell>
                <mxCell id="38" value="Check signature" style="rounded=1;whiteSpace=wrap;html=1;" vertex="1" parent="52">
                    <mxGeometry x="60" y="80" width="120" height="60" as="geometry"/>
                </mxCell>
                <mxCell id="39" value="Check actual balance" style="rounded=1;whiteSpace=wrap;html=1;" vertex="1" parent="52">
                    <mxGeometry x="50" y="240" width="120" height="60" as="geometry"/>
                </mxCell>
                <mxCell id="40" value="" style="endArrow=classic;html=1;exitX=0.433;exitY=1.017;exitDx=0;exitDy=0;exitPerimeter=0;" edge="1" parent="52" source="38" target="39">
                    <mxGeometry width="50" height="50" relative="1" as="geometry">
                        <mxPoint x="280" y="480" as="sourcePoint"/>
                        <mxPoint x="330" y="430" as="targetPoint"/>
                    </mxGeometry>
                </mxCell>
                <mxCell id="44" value="Check pool reserve" style="whiteSpace=wrap;html=1;fillColor=rgb(255, 255, 255);rounded=1;" vertex="1" parent="52">
                    <mxGeometry x="50" y="380" width="120" height="60" as="geometry"/>
                </mxCell>
                <mxCell id="45" value="" style="edgeStyle=none;html=1;" edge="1" parent="52" source="39" target="44">
                    <mxGeometry relative="1" as="geometry"/>
                </mxCell>
                <mxCell id="46" value="Update user balance" style="whiteSpace=wrap;html=1;fillColor=rgb(255, 255, 255);rounded=1;" vertex="1" parent="52">
                    <mxGeometry x="305" y="380" width="120" height="60" as="geometry"/>
                </mxCell>
                <mxCell id="47" value="" style="edgeStyle=none;html=1;" edge="1" parent="52" source="44" target="46">
                    <mxGeometry relative="1" as="geometry"/>
                </mxCell>
                <mxCell id="48" value="Update pool reserve" style="whiteSpace=wrap;html=1;fillColor=rgb(255, 255, 255);rounded=1;" vertex="1" parent="52">
                    <mxGeometry x="305" y="240" width="120" height="60" as="geometry"/>
                </mxCell>
                <mxCell id="49" value="" style="edgeStyle=none;html=1;" edge="1" parent="52" source="46" target="48">
                    <mxGeometry relative="1" as="geometry"/>
                </mxCell>
                <mxCell id="50" value="Generate new root" style="whiteSpace=wrap;html=1;fillColor=rgb(255, 255, 255);rounded=1;" vertex="1" parent="52">
                    <mxGeometry x="305" y="80" width="120" height="60" as="geometry"/>
                </mxCell>
                <mxCell id="51" value="" style="edgeStyle=none;html=1;" edge="1" parent="52" source="48" target="50">
                    <mxGeometry relative="1" as="geometry"/>
                </mxCell>
                <mxCell id="53" value="&lt;h1&gt;Rollup Proof generation&lt;br&gt;&lt;br&gt;&lt;/h1&gt;" style="text;html=1;strokeColor=none;fillColor=none;spacing=5;spacingTop=-20;whiteSpace=wrap;overflow=hidden;rounded=0;" vertex="1" parent="52">
                    <mxGeometry x="70" y="10" width="330" height="50" as="geometry"/>
                </mxCell>
                <mxCell id="57" value="Alice" style="shape=umlActor;verticalLabelPosition=bottom;verticalAlign=top;html=1;outlineConnect=0;" vertex="1" parent="1">
                    <mxGeometry x="30" y="620" width="30" height="60" as="geometry"/>
                </mxCell>
                <mxCell id="74" value="Rollup Proof Generation" style="whiteSpace=wrap;html=1;aspect=fixed;" vertex="1" parent="1">
                    <mxGeometry x="320" y="620" width="120" height="120" as="geometry"/>
                </mxCell>
                <mxCell id="75" value="" style="edgeStyle=none;html=1;entryX=0;entryY=0.25;entryDx=0;entryDy=0;" edge="1" parent="1" source="57" target="74">
                    <mxGeometry relative="1" as="geometry">
                        <mxPoint x="70" y="640" as="sourcePoint"/>
                        <mxPoint x="372.03999999999996" y="179" as="targetPoint"/>
                    </mxGeometry>
                </mxCell>
                <mxCell id="76" value="Request new swap and sign" style="edgeLabel;html=1;align=center;verticalAlign=middle;resizable=0;points=[];" vertex="1" connectable="0" parent="75">
                    <mxGeometry x="-0.27" y="1" relative="1" as="geometry">
                        <mxPoint as="offset"/>
                    </mxGeometry>
                </mxCell>
                <mxCell id="79" value="Recursion" style="endArrow=classic;html=1;exitX=0.185;exitY=0.998;exitDx=0;exitDy=0;exitPerimeter=0;entryX=0.558;entryY=-0.008;entryDx=0;entryDy=0;entryPerimeter=0;" edge="1" parent="1" source="52" target="74">
                    <mxGeometry width="50" height="50" relative="1" as="geometry">
                        <mxPoint x="560" y="470" as="sourcePoint"/>
                        <mxPoint x="610" y="420" as="targetPoint"/>
                    </mxGeometry>
                </mxCell>
                <mxCell id="80" value="" style="shape=cylinder3;whiteSpace=wrap;html=1;boundedLbl=1;backgroundOutline=1;size=15;" vertex="1" parent="1">
                    <mxGeometry x="700" y="570" width="210" height="170" as="geometry"/>
                </mxCell>
                <mxCell id="81" value="&lt;h1&gt;Rollup contract&lt;/h1&gt;&lt;p&gt;Verify the proof and store the new merkle root.&lt;/p&gt;" style="text;html=1;strokeColor=none;fillColor=none;spacing=5;spacingTop=-20;whiteSpace=wrap;overflow=hidden;rounded=0;" vertex="1" parent="1">
                    <mxGeometry x="710" y="610" width="190" height="120" as="geometry"/>
                </mxCell>
                <mxCell id="82" value="Submit the new proof" style="endArrow=classic;html=1;exitX=1;exitY=0.442;exitDx=0;exitDy=0;exitPerimeter=0;entryX=0.005;entryY=0.6;entryDx=0;entryDy=0;entryPerimeter=0;" edge="1" parent="1" source="74" target="80">
                    <mxGeometry width="50" height="50" relative="1" as="geometry">
                        <mxPoint x="560" y="470" as="sourcePoint"/>
                        <mxPoint x="610" y="420" as="targetPoint"/>
                    </mxGeometry>
                </mxCell>
            </root>
        </mxGraphModel>
    </diagram>
</mxfile>